<svg width="56" height="56" viewBox="0 0 56 56" fill="none" xmlns="http://www.w3.org/2000/svg">
<path d="M0 8C0 3.58172 3.58172 0 8 0H48C52.4183 0 56 3.58172 56 8V48C56 52.4183 52.4183 56 48 56H8C3.58172 56 0 52.4183 0 48V8Z" fill="#E0FDEF"/>
<path d="M18 10.505C17.6685 10.505 17.3505 10.6367 17.1161 10.8711C16.8817 11.1055 16.75 11.4235 16.75 11.755V29.25C16.75 30.5761 17.2768 31.8478 18.2145 32.7855C19.1521 33.7232 20.4239 34.25 21.75 34.25H23V40.5C23 41.1563 23.1293 41.8061 23.3804 42.4125C23.6316 43.0188 23.9997 43.5697 24.4637 44.0338C24.9278 44.4978 25.4787 44.8659 26.085 45.1171C26.6914 45.3682 27.3412 45.4975 27.9975 45.4975C28.6538 45.4975 29.3036 45.3682 29.91 45.1171C30.5163 44.8659 31.0672 44.4978 31.5313 44.0338C31.9953 43.5697 32.3634 43.0188 32.6146 42.4125C32.8657 41.8061 32.995 41.1563 32.995 40.5V34.25H34.25C35.5761 34.25 36.8479 33.7232 37.7855 32.7855C38.7232 31.8478 39.25 30.5761 39.25 29.25V11.755C39.25 11.4235 39.1183 11.1055 38.8839 10.8711C38.6495 10.6367 38.3315 10.505 38 10.505H18ZM36.75 25.5H19.25V13.005H26.75V16.76C26.75 17.0915 26.8817 17.4095 27.1161 17.6439C27.3505 17.8783 27.6685 18.01 28 18.01C28.3315 18.01 28.6495 17.8783 28.8839 17.6439C29.1183 17.4095 29.25 17.0915 29.25 16.76V13.005H31.75V19.245C31.75 19.5765 31.8817 19.8945 32.1161 20.1289C32.3505 20.3633 32.6685 20.495 33 20.495C33.3315 20.495 33.6495 20.3633 33.8839 20.1289C34.1183 19.8945 34.25 19.5765 34.25 19.245V13.005H36.75V25.5ZM19.25 29.25V28H36.75V29.25C36.75 29.913 36.4866 30.5489 36.0178 31.0178C35.5489 31.4866 34.913 31.75 34.25 31.75H31.745C31.4135 31.75 31.0955 31.8817 30.8611 32.1161C30.6267 32.3505 30.495 32.6685 30.495 33V40.5C30.495 41.1624 30.2319 41.7976 29.7635 42.266C29.2951 42.7344 28.6599 42.9975 27.9975 42.9975C27.3351 42.9975 26.6999 42.7344 26.2315 42.266C25.7631 41.7976 25.5 41.1624 25.5 40.5V33C25.5 32.6685 25.3683 32.3505 25.1339 32.1161C24.8995 31.8817 24.5815 31.75 24.25 31.75H21.75C21.087 31.75 20.4511 31.4866 19.9822 31.0178C19.5134 30.5489 19.25 29.913 19.25 29.25Z" fill="#2FD887"/>
</svg>
