<svg width="56" height="56" viewBox="0 0 56 56" fill="none" xmlns="http://www.w3.org/2000/svg">
<path d="M0 8C0 3.58172 3.58172 0 8 0H48C52.4183 0 56 3.58172 56 8V48C56 52.4183 52.4183 56 48 56H8C3.58172 56 0 52.4183 0 48V8Z" fill="#FFF1E9"/>
<path d="M32.5075 15.6075C32.6576 15.6741 32.793 15.7697 32.9062 15.8886C33.0193 16.0076 33.1078 16.1477 33.1668 16.301C33.2258 16.4542 33.254 16.6175 33.2498 16.7816C33.2457 16.9458 33.2092 17.1075 33.1425 17.2575L23.1425 39.7575C23.0079 40.0605 22.7585 40.2976 22.449 40.4167C22.1396 40.5358 21.7955 40.5271 21.4925 40.3925C21.1895 40.2579 20.9524 40.0084 20.8333 39.699C20.7142 39.3896 20.7229 39.0455 20.8575 38.7425L30.8575 16.2425C30.9242 16.0924 31.0197 15.957 31.1387 15.8439C31.2577 15.7308 31.3978 15.6422 31.551 15.5832C31.7042 15.5242 31.8676 15.496 32.0317 15.5002C32.1958 15.5044 32.3575 15.5408 32.5075 15.6075ZM18.8325 21.44C18.955 21.5493 19.0547 21.6817 19.126 21.8296C19.1973 21.9774 19.2388 22.1379 19.2481 22.3018C19.2574 22.4657 19.2343 22.6298 19.1801 22.7848C19.126 22.9397 19.0419 23.0825 18.9325 23.205L14.675 28L18.9375 32.795C19.0465 32.9178 19.1303 33.0608 19.184 33.216C19.2377 33.3711 19.2603 33.5353 19.2506 33.6992C19.2408 33.8631 19.1989 34.0235 19.1272 34.1712C19.0554 34.3189 18.9553 34.451 18.8325 34.56C18.7097 34.669 18.5667 34.7527 18.4115 34.8064C18.2564 34.8602 18.0922 34.8828 17.9283 34.873C17.7644 34.8633 17.604 34.8214 17.4563 34.7496C17.3086 34.6779 17.1765 34.5778 17.0675 34.455L12.0675 28.83C11.8644 28.6012 11.7522 28.3059 11.7522 28C11.7522 27.6941 11.8644 27.3988 12.0675 27.17L17.0675 21.545C17.1765 21.4222 17.3086 21.322 17.4563 21.2503C17.604 21.1785 17.7644 21.1366 17.9283 21.1268C18.0922 21.1171 18.2564 21.1397 18.4116 21.1935C18.5667 21.2472 18.7098 21.331 18.8325 21.44ZM37.17 21.44C37.2928 21.331 37.4359 21.2472 37.591 21.1935C37.7462 21.1397 37.9104 21.1171 38.0743 21.1268C38.2382 21.1366 38.3986 21.1785 38.5463 21.2503C38.6939 21.322 38.8261 21.4222 38.935 21.545L43.935 27.17C44.1382 27.3988 44.2504 27.6941 44.2504 28C44.2504 28.3059 44.1382 28.6012 43.935 28.83L38.935 34.455C38.826 34.5778 38.6939 34.6779 38.5462 34.7496C38.3985 34.8214 38.2382 34.8633 38.0743 34.873C37.9104 34.8828 37.7462 34.8602 37.591 34.8064C37.4359 34.7527 37.2928 34.669 37.17 34.56C37.0472 34.451 36.9471 34.3189 36.8754 34.1712C36.8037 34.0235 36.7617 33.8631 36.752 33.6992C36.7422 33.5353 36.7649 33.3711 36.8186 33.216C36.8723 33.0608 36.956 32.9178 37.065 32.795L41.3275 28L37.065 23.205C36.956 23.0822 36.8722 22.9392 36.8185 22.784C36.7648 22.6289 36.7421 22.4646 36.7519 22.3007C36.7616 22.1368 36.8036 21.9765 36.8753 21.8288C36.9471 21.6811 37.0472 21.549 37.17 21.44Z" fill="#FF7E35"/>
</svg>
