<svg width="56" height="56" viewBox="0 0 56 56" fill="none" xmlns="http://www.w3.org/2000/svg">
<path d="M0 8C0 3.58172 3.58172 0 8 0H48C52.4183 0 56 3.58172 56 8V48C56 52.4183 52.4183 56 48 56H8C3.58172 56 0 52.4183 0 48V8Z" fill="#EBF0FF"/>
<path d="M29.25 26.75C29.25 25.7554 29.6451 24.8016 30.3483 24.0983C31.0516 23.3951 32.0054 23 33 23H36.75C37.0815 23 37.3995 23.1317 37.6339 23.3661C37.8683 23.6005 38 23.9185 38 24.25C38 24.5815 37.8683 24.8995 37.6339 25.1339C37.3995 25.3683 37.0815 25.5 36.75 25.5H33C32.6685 25.5 32.3505 25.6317 32.1161 25.8661C31.8817 26.1005 31.75 26.4185 31.75 26.75V28C31.75 28.3315 31.8817 28.6495 32.1161 28.8839C32.3505 29.1183 32.6685 29.25 33 29.25H34.25C35.2446 29.25 36.1984 29.6451 36.9017 30.3483C37.6049 31.0516 38 32.0054 38 33V34.25C38 35.2446 37.6049 36.1984 36.9017 36.9017C36.1984 37.6049 35.2446 38 34.25 38H30.5C30.1685 38 29.8505 37.8683 29.6161 37.6339C29.3817 37.3995 29.25 37.0815 29.25 36.75C29.25 36.4185 29.3817 36.1005 29.6161 35.8661C29.8505 35.6317 30.1685 35.5 30.5 35.5H34.25C34.5815 35.5 34.8995 35.3683 35.1339 35.1339C35.3683 34.8995 35.5 34.5815 35.5 34.25V33C35.5 32.6685 35.3683 32.3505 35.1339 32.1161C34.8995 31.8817 34.5815 31.75 34.25 31.75H33C32.0054 31.75 31.0516 31.3549 30.3483 30.6517C29.6451 29.9484 29.25 28.9946 29.25 28V26.75ZM28 24.25C28 23.9185 27.8683 23.6005 27.6339 23.3661C27.3995 23.1317 27.0815 23 26.75 23C26.4185 23 26.1005 23.1317 25.8661 23.3661C25.6317 23.6005 25.5 23.9185 25.5 24.25V34.25C25.5 34.5815 25.3683 34.8995 25.1339 35.1339C24.8995 35.3683 24.5815 35.5 24.25 35.5H21.75C21.4185 35.5 21.1005 35.6317 20.8661 35.8661C20.6317 36.1005 20.5 36.4185 20.5 36.75C20.5 37.0815 20.6317 37.3995 20.8661 37.6339C21.1005 37.8683 21.4185 38 21.75 38H24.25C25.2446 38 26.1984 37.6049 26.9017 36.9017C27.6049 36.1984 28 35.2446 28 34.25V24.25ZM13 19.25C13 17.5924 13.6585 16.0027 14.8306 14.8306C16.0027 13.6585 17.5924 13 19.25 13H36.75C38.4076 13 39.9973 13.6585 41.1694 14.8306C42.3415 16.0027 43 17.5924 43 19.25V36.75C43 38.4076 42.3415 39.9973 41.1694 41.1694C39.9973 42.3415 38.4076 43 36.75 43H19.25C17.5924 43 16.0027 42.3415 14.8306 41.1694C13.6585 39.9973 13 38.4076 13 36.75V19.25ZM19.25 15.5C18.2554 15.5 17.3016 15.8951 16.5983 16.5983C15.8951 17.3016 15.5 18.2554 15.5 19.25V36.75C15.5 37.7446 15.8951 38.6984 16.5983 39.4017C17.3016 40.1049 18.2554 40.5 19.25 40.5H36.75C37.7446 40.5 38.6984 40.1049 39.4017 39.4017C40.1049 38.6984 40.5 37.7446 40.5 36.75V19.25C40.5 18.2554 40.1049 17.3016 39.4017 16.5983C38.6984 15.8951 37.7446 15.5 36.75 15.5H19.25Z" fill="#306AFF"/>
</svg>
